<svg xmlns="http://www.w3.org/2000/svg" viewBox="0 0 128 128">
  <!-- Official Redis logo - extracted from redis.io -->
  <g transform="translate(-108, -138) scale(0.68)">
    <!-- Bottom layer shadow -->
    <path fill="#A41E11" d="M334.774,339.535c-9.078,4.732-56.106,24.068-66.118,29.287c-10.012,5.221-15.574,5.17-23.483,1.389s-57.955-23.996-66.97-28.305c-4.506-2.154-6.875-3.971-6.875-5.688c0-1.713,0-17.195,0-17.195s65.153-14.184,75.672-17.957c10.518-3.774,14.167-3.91,23.118-0.631c8.952,3.279,62.474,12.936,71.321,16.176c0,0-0.004,15.357-0.004,16.951C341.436,335.262,339.395,337.127,334.774,339.535z"/>
    <!-- Bottom layer top -->
    <path fill="#D82C20" d="M334.774,322.336c-9.078,4.73-56.106,24.068-66.118,29.287c-10.012,5.221-15.574,5.17-23.483,1.389c-7.91-3.779-57.955-23.998-66.97-28.305c-9.015-4.309-9.204-7.275-0.348-10.742c8.855-3.469,58.626-22.996,69.146-26.77c10.518-3.772,14.167-3.91,23.118-0.63c8.952,3.279,55.699,21.886,64.545,25.126C343.512,314.934,343.852,317.604,334.774,322.336z"/>
    <!-- Middle layer shadow -->
    <path fill="#A41E11" d="M334.774,311.496c-9.078,4.732-56.106,24.068-66.118,29.289c-10.012,5.219-15.574,5.168-23.483,1.387c-7.91-3.779-57.955-23.996-66.97-28.305c-4.506-2.154-6.875-3.969-6.875-5.686c0-1.713,0-17.197,0-17.197s65.153-14.183,75.672-17.957c10.518-3.773,14.167-3.91,23.118-0.631c8.952,3.279,62.474,12.934,71.321,16.175c0,0-0.004,15.357-0.004,16.953C341.436,307.223,339.395,309.088,334.774,311.496z"/>
    <!-- Middle layer top -->
    <path fill="#D82C20" d="M334.774,294.297c-9.078,4.732-56.106,24.068-66.118,29.289c-10.012,5.219-15.574,5.168-23.483,1.387c-7.91-3.779-57.955-23.997-66.97-28.305c-9.015-4.308-9.204-7.274-0.348-10.743c8.855-3.467,58.626-22.995,69.146-26.768c10.518-3.773,14.167-3.91,23.118-0.631c8.952,3.279,55.699,21.885,64.545,25.126C343.512,286.894,343.852,289.565,334.774,294.297z"/>
    <!-- Top layer shadow -->
    <path fill="#A41E11" d="M334.774,282.419c-9.078,4.732-56.106,24.069-66.118,29.29c-10.012,5.219-15.574,5.168-23.483,1.387c-7.91-3.779-57.955-23.997-66.97-28.305c-4.506-2.154-6.875-3.97-6.875-5.686c0-1.714,0-17.197,0-17.197s65.153-14.183,75.672-17.956c10.518-3.774,14.167-3.91,23.118-0.631c8.952,3.279,62.474,12.934,71.321,16.175c0,0-0.004,15.357-0.004,16.952C341.436,278.146,339.395,280.011,334.774,282.419z"/>
    <!-- Top layer top -->
    <path fill="#D82C20" d="M334.774,265.22c-9.078,4.732-56.106,24.069-66.118,29.289c-10.012,5.219-15.574,5.168-23.483,1.388s-57.955-23.997-66.97-28.305c-9.015-4.308-9.204-7.275-0.348-10.743c8.855-3.468,58.626-22.994,69.146-26.768c10.518-3.774,14.167-3.91,23.118-0.63c8.952,3.279,55.699,21.885,64.545,25.126C343.512,257.817,343.852,260.489,334.774,265.22z"/>
    <!-- Star decoration -->
    <polygon fill="#FFFFFF" points="259.055,240.78 270.272,237.111 267.236,244.379 278.667,248.657 263.933,250.186 260.631,258.13 255.296,249.269 238.277,247.74 250.978,243.157 247.168,236.128"/>
    <!-- Diamond shape -->
    <polygon fill="#FFFFFF" points="259.753,287.181 232.236,275.771 271.656,269.72"/>
    <!-- Ellipse -->
    <ellipse fill="#FFFFFF" cx="221.612" cy="261.241" rx="21.069" ry="8.167"/>
    <!-- Small cube decorations -->
    <polygon fill="#7A0C00" points="296.094,250.826 319.421,260.053 296.107,269.257"/>
    <polygon fill="#AD2115" points="296.094,250.826 296.107,269.257 293.582,270.253 270.281,261.036"/>
  </g>
</svg>
